<?xml version="1.0" encoding="UTF-8" standalone="no"?>
<svg
   xmlns:dc="http://purl.org/dc/elements/1.1/"
   xmlns:cc="http://creativecommons.org/ns#"
   xmlns:rdf="http://www.w3.org/1999/02/22-rdf-syntax-ns#"
   xmlns:svg="http://www.w3.org/2000/svg"
   xmlns="http://www.w3.org/2000/svg"
   xmlns:sodipodi="http://sodipodi.sourceforge.net/DTD/sodipodi-0.dtd"
   xmlns:inkscape="http://www.inkscape.org/namespaces/inkscape"
   version="1.1"
   width="507"
   height="146"
   viewBox="0 0 507 146"
   xml:space="preserve"
   id="svg13"
   sodipodi:docname="built.svg"><metadata
   id="metadata17"><rdf:RDF><cc:Work
       rdf:about=""><dc:format>image/svg+xml</dc:format><dc:type
         rdf:resource="http://purl.org/dc/dcmitype/StillImage" /></cc:Work></rdf:RDF></metadata><sodipodi:namedview
   pagecolor="#ffffff"
   bordercolor="#666666"
   borderopacity="1"
   objecttolerance="10"
   gridtolerance="10"
   guidetolerance="10"
   inkscape:pageopacity="0"
   inkscape:pageshadow="2"
   inkscape:window-width="640"
   inkscape:window-height="480"
   id="namedview15"
   fit-margin-top="27"
   fit-margin-left="27"
   fit-margin-right="27"
   fit-margin-bottom="27" />
<desc
   id="desc2">Created with Fabric.js 5.3.0</desc>
<defs
   id="defs4">
</defs>
<rect
   width="507.39999"
   height="146.39999"
   fill="#ffffff"
   x="-0.10000038"
   y="-0.10000038"
   id="rect6" /><g
   transform="translate(257.62,80.3)"
   id="base_text">
		<g
   aria-label="xelorian"
   id="text10"
   style="font-style:normal;font-weight:normal;font-size:120px;font-family:f41317;white-space:pre;opacity:1;fill:#1863af;fill-rule:nonzero;stroke:none;stroke-width:1;stroke-linecap:butt;stroke-linejoin:miter;stroke-miterlimit:4;stroke-dasharray:none;stroke-dashoffset:0"><path
     d="m -187.2,37.700001 -16.92,-26.4 -16.32,26.4 h -8.88 L -208.2,4.9400008 -229.08,-27.819999 h 9.48 l 16.68,26.0399998 16.2,-26.0399998 h 8.76 l -20.88,32.3999998 21.12,33.1200002 z"
     id="path19" /><path
     d="m -107.0401,1.5800008 q 0,4.32 -0.24,6.6 h -54.36 q 0.36,7.4400002 3.6,12.7200002 3.24,5.28 8.52,8.04 5.28,2.64 11.52,2.64 8.16,0 13.68,-3.96 5.64,-3.96 7.44,-10.68 h 8.88 q -2.4,9.6 -10.32,15.72 -7.8,6 -19.68,6 -9.24,0 -16.56,-4.08 -7.32,-4.2 -11.52,-11.76 -4.08,-7.68 -4.08,-17.8800002 0,-10.2 4.08,-17.8799998 4.08,-7.68 11.4,-11.76 7.32,-4.08 16.68,-4.08 9.36,0 16.32,4.08 7.08,4.08 10.8,11.04 3.84,6.8399998 3.84,15.2399998 z m -8.52,-0.24 q 0.12,-7.32 -3,-12.4799998 -3,-5.16 -8.28,-7.8 -5.28,-2.64 -11.52,-2.64 -9.36,0 -15.96,6 -6.6,5.9999998 -7.32,16.9199998 z"
     id="path21" /><path
     d="m -83.280136,-51.099999 v 88.8 h -8.4 v -88.8 z"
     id="path23" /><path
     d="m -35.520354,38.660001 q -9.24,0 -16.68,-4.08 -7.32,-4.2 -11.64,-11.76 -4.2,-7.68 -4.2,-17.8800002 0,-10.2 4.32,-17.7599998 4.32,-7.68 11.76,-11.76 7.44,-4.2 16.68,-4.2 9.24,0 16.68,4.2 7.56,4.08 11.76,11.76 4.32,7.5599998 4.32,17.7599998 0,10.0800002 -4.32,17.7600002 -4.32,7.68 -11.88,11.88 -7.56,4.08 -16.8,4.08 z m 0,-7.32 q 6.48,0 12,-2.88 5.52,-3 8.88,-8.88 3.48,-6 3.48,-14.6400002 0,-8.64 -3.36,-14.52 -3.36,-5.9999998 -8.88,-8.8799998 -5.52,-3 -12,-3 -6.48,0 -12,3 -5.52,2.88 -8.88,8.8799998 -3.24,5.88 -3.24,14.52 0,8.6400002 3.24,14.6400002 3.36,5.88 8.76,8.88 5.52,2.88 12,2.88 z"
     id="path25" /><path
     d="m 21.239441,-16.179999 q 2.76,-6.12 8.4,-9.48 5.76,-3.36 14.04,-3.36 v 8.76 h -2.28 q -9.12,0 -14.64,4.92 -5.52,4.92 -5.52,16.4399998 V 37.700001 h -8.4 v -65.52 h 8.4 z"
     id="path27" /><path
     d="m 60.479382,-40.179999 q -2.52,0 -4.32,-1.8 -1.8,-1.8 -1.8,-4.44 0,-2.64 1.8,-4.32 1.8,-1.8 4.32,-1.8 2.52,0 4.32,1.8 1.8,1.68 1.8,4.32 0,2.64 -1.8,4.44 -1.8,1.8 -4.32,1.8 z m 4.2,12.36 v 65.52 h -8.4 v -65.52 z"
     id="path29" /><path
     d="m 79.91918,4.8200008 q 0,-10.08 3.96,-17.6399998 4.08,-7.68 11.16,-11.76 7.2,-4.2 16.2,-4.2 9.36,0 16.08,4.32 6.84,4.32 9.84,11.04 v -14.4 h 8.4 v 65.52 h -8.4 v -14.52 q -3.12,6.72 -9.96,11.16 -6.72,4.32 -16.08,4.32 -8.88,0 -16.08,-4.2 -7.08,-4.2 -11.16,-11.88 -3.96,-7.68 -3.96,-17.7600002 z m 57.24,0.12 q 0,-7.92 -3.24,-13.92 -3.24,-5.9999998 -8.88,-9.2399998 -5.52,-3.24 -12.24,-3.24 -6.96,0 -12.48,3.12 -5.52,3.12 -8.76,9.1199998 -3.12,5.88 -3.12,14.04 0,8.0400002 3.12,14.1600002 3.24,6 8.76,9.24 5.52,3.12 12.48,3.12 6.72,0 12.24,-3.24 5.64,-3.24 8.88,-9.24 3.24,-6 3.24,-13.9200002 z"
     id="path31" /><path
     d="m 195.47906,-29.019999 q 11.76,0 19.2,7.32 7.44,7.2 7.44,20.99999976 V 37.700001 h -8.28 V 0.26000076 q 0,-10.67999976 -5.4,-16.31999976 -5.28,-5.64 -14.52,-5.64 -9.48,0 -15.12,6 -5.64,5.9999998 -5.64,17.6399998 V 37.700001 h -8.4 v -65.52 h 8.4 v 11.16 q 3.12,-6 9,-9.12 5.88,-3.24 13.32,-3.24 z"
     id="path33" /></g>
</g></svg>
