<?xml version="1.0" encoding="UTF-8" standalone="no"?>
<svg
   xmlns:dc="http://purl.org/dc/elements/1.1/"
   xmlns:cc="http://creativecommons.org/ns#"
   xmlns:rdf="http://www.w3.org/1999/02/22-rdf-syntax-ns#"
   xmlns:svg="http://www.w3.org/2000/svg"
   xmlns="http://www.w3.org/2000/svg"
   xmlns:sodipodi="http://sodipodi.sourceforge.net/DTD/sodipodi-0.dtd"
   xmlns:inkscape="http://www.inkscape.org/namespaces/inkscape"
   version="1.1"
   width="863"
   height="351"
   viewBox="167.18167 76.337644 863 351"
   xml:space="preserve"
   id="svg43"
   sodipodi:docname="built.svg"><metadata
   id="metadata47"><rdf:RDF><cc:Work
       rdf:about=""><dc:format>image/svg+xml</dc:format><dc:type
         rdf:resource="http://purl.org/dc/dcmitype/StillImage" /></cc:Work></rdf:RDF></metadata><sodipodi:namedview
   pagecolor="#ffffff"
   bordercolor="#666666"
   borderopacity="1"
   objecttolerance="10"
   gridtolerance="10"
   guidetolerance="10"
   inkscape:pageopacity="0"
   inkscape:pageshadow="2"
   inkscape:window-width="640"
   inkscape:window-height="480"
   id="namedview45"
   fit-margin-top="46"
   fit-margin-left="46"
   fit-margin-right="46"
   fit-margin-bottom="46" />
<desc
   id="desc2">Created with Fabric.js 5.3.0</desc>
<defs
   id="defs4">
</defs>
<rect
   width="863.59998"
   height="351.60001"
   fill="#ffffff"
   x="166.98166"
   y="76.137642"
   id="rect6" /><g
   transform="matrix(0.99,0,0,0.99,763.47,244.28)"
   id="base_text">
		<g
   aria-label="xelorian"
   id="text10"
   style="font-style:normal;font-weight:normal;font-size:120px;font-family:f41317;white-space:pre;opacity:1;fill:#1863af;fill-rule:nonzero;stroke:none;stroke-width:1;stroke-linecap:butt;stroke-linejoin:miter;stroke-miterlimit:4;stroke-dasharray:none;stroke-dashoffset:0"><path
     d="m -187.2,37.700001 -16.92,-26.4 -16.32,26.4 h -8.88 L -208.2,4.9400008 -229.08,-27.819999 h 9.48 l 16.68,26.0399998 16.2,-26.0399998 h 8.76 l -20.88,32.3999998 21.12,33.1200002 z"
     id="path49" /><path
     d="m -107.0401,1.5800008 q 0,4.32 -0.24,6.6 h -54.36 q 0.36,7.4400002 3.6,12.7200002 3.24,5.28 8.52,8.04 5.28,2.64 11.52,2.64 8.16,0 13.68,-3.96 5.64,-3.96 7.44,-10.68 h 8.88 q -2.4,9.6 -10.32,15.72 -7.8,6 -19.68,6 -9.24,0 -16.56,-4.08 -7.32,-4.2 -11.52,-11.76 -4.08,-7.68 -4.08,-17.8800002 0,-10.2 4.08,-17.8799998 4.08,-7.68 11.4,-11.76 7.32,-4.08 16.68,-4.08 9.36,0 16.32,4.08 7.08,4.08 10.8,11.04 3.84,6.8399998 3.84,15.2399998 z m -8.52,-0.24 q 0.12,-7.32 -3,-12.4799998 -3,-5.16 -8.28,-7.8 -5.28,-2.64 -11.52,-2.64 -9.36,0 -15.96,6 -6.6,5.9999998 -7.32,16.9199998 z"
     id="path51" /><path
     d="m -83.280136,-51.099999 v 88.8 h -8.4 v -88.8 z"
     id="path53" /><path
     d="m -35.520354,38.660001 q -9.24,0 -16.68,-4.08 -7.32,-4.2 -11.64,-11.76 -4.2,-7.68 -4.2,-17.8800002 0,-10.2 4.32,-17.7599998 4.32,-7.68 11.76,-11.76 7.44,-4.2 16.68,-4.2 9.24,0 16.68,4.2 7.56,4.08 11.76,11.76 4.32,7.5599998 4.32,17.7599998 0,10.0800002 -4.32,17.7600002 -4.32,7.68 -11.88,11.88 -7.56,4.08 -16.8,4.08 z m 0,-7.32 q 6.48,0 12,-2.88 5.52,-3 8.88,-8.88 3.48,-6 3.48,-14.6400002 0,-8.64 -3.36,-14.52 -3.36,-5.9999998 -8.88,-8.8799998 -5.52,-3 -12,-3 -6.48,0 -12,3 -5.52,2.88 -8.88,8.8799998 -3.24,5.88 -3.24,14.52 0,8.6400002 3.24,14.6400002 3.36,5.88 8.76,8.88 5.52,2.88 12,2.88 z"
     id="path55" /><path
     d="m 21.239441,-16.179999 q 2.76,-6.12 8.4,-9.48 5.76,-3.36 14.04,-3.36 v 8.76 h -2.28 q -9.12,0 -14.64,4.92 -5.52,4.92 -5.52,16.4399998 V 37.700001 h -8.4 v -65.52 h 8.4 z"
     id="path57" /><path
     d="m 60.479382,-40.179999 q -2.52,0 -4.32,-1.8 -1.8,-1.8 -1.8,-4.44 0,-2.64 1.8,-4.32 1.8,-1.8 4.32,-1.8 2.52,0 4.32,1.8 1.8,1.68 1.8,4.32 0,2.64 -1.8,4.44 -1.8,1.8 -4.32,1.8 z m 4.2,12.36 v 65.52 h -8.4 v -65.52 z"
     id="path59" /><path
     d="m 79.91918,4.8200008 q 0,-10.08 3.96,-17.6399998 4.08,-7.68 11.16,-11.76 7.2,-4.2 16.2,-4.2 9.36,0 16.08,4.32 6.84,4.32 9.84,11.04 v -14.4 h 8.4 v 65.52 h -8.4 v -14.52 q -3.12,6.72 -9.96,11.16 -6.72,4.32 -16.08,4.32 -8.88,0 -16.08,-4.2 -7.08,-4.2 -11.16,-11.88 -3.96,-7.68 -3.96,-17.7600002 z m 57.24,0.12 q 0,-7.92 -3.24,-13.92 -3.24,-5.9999998 -8.88,-9.2399998 -5.52,-3.24 -12.24,-3.24 -6.96,0 -12.48,3.12 -5.52,3.12 -8.76,9.1199998 -3.12,5.88 -3.12,14.04 0,8.0400002 3.12,14.1600002 3.24,6 8.76,9.24 5.52,3.12 12.48,3.12 6.72,0 12.24,-3.24 5.64,-3.24 8.88,-9.24 3.24,-6 3.24,-13.9200002 z"
     id="path61" /><path
     d="m 195.47906,-29.019999 q 11.76,0 19.2,7.32 7.44,7.2 7.44,20.99999976 V 37.700001 h -8.28 V 0.26000076 q 0,-10.67999976 -5.4,-16.31999976 -5.28,-5.64 -14.52,-5.64 -9.48,0 -15.12,6 -5.64,5.9999998 -5.64,17.6399998 V 37.700001 h -8.4 v -65.52 h 8.4 v 11.16 q 3.12,-6 9,-9.12 5.88,-3.24 13.32,-3.24 z"
     id="path63" /></g>
</g><g
   transform="matrix(0.99,0,0,0.99,477.67,244.28)"
   id="separator_line">
<path
   id="rect13"
   style="opacity:1;fill:#1863af;fill-rule:nonzero;stroke:none;stroke-width:1;stroke-linecap:butt;stroke-linejoin:miter;stroke-miterlimit:4;stroke-dasharray:none;stroke-dashoffset:0"
   d="m -2.5,-67.800003 h 5 V 67.800003 h -5 z" />
</g><g
   transform="matrix(0.66,0.03,-0.03,0.66,328.16,251.5)"
   id="main_icon">
<g
   id="g40">
		<g
   transform="matrix(0.05,0,0,-0.05,2.29,-16.69)"
   id="g18">
<path
   style="opacity:1;fill:#1863af;fill-rule:nonzero;stroke:none;stroke-width:1;stroke-linecap:butt;stroke-linejoin:miter;stroke-miterlimit:4;stroke-dasharray:none;stroke-dashoffset:0"
   transform="translate(-5017.36,-5455.31)"
   d="M 4760,8984 C 4355,8949 4001,8865 3681,8728 2795,8349 2098,7635 1742,6740 c -79,-200 -122,-343 -178,-605 -58,-266 -82,-804 -50,-1090 57,-502 186,-916 407,-1313 203,-365 448,-669 757,-943 169,-148 289,-237 471,-346 444,-268 898,-425 1441,-500 175,-24 615,-24 835,1 480,52 933,187 1296,385 654,356 1165,900 1489,1584 112,237 202,520 264,832 59,302 61,322 61,695 0,375 -6,439 -66,733 -183,900 -735,1730 -1479,2221 -397,263 -780,418 -1315,532 -142,30 -409,55 -640,58 -126,2 -250,2 -275,0 z m 630,-309 c 553,-70 1018,-238 1445,-521 187,-123 286,-204 430,-349 135,-135 183,-195 255,-315 237,-395 170,-869 -183,-1280 -369,-432 -878,-748 -1892,-1176 -170,-72 -268,-110 -542,-210 -24,-9 -45,-19 -48,-24 -3,-5 66,-63 154,-129 l 159,-120 148,53 c 439,158 990,402 1474,652 817,421 1176,885 1120,1448 -6,62 -18,137 -25,167 -25,92 -14,91 34,-1 58,-111 120,-276 184,-491 70,-233 110,-416 127,-578 13,-128 13,-151 0,-151 -5,0 -10,7 -10,15 0,39 -160,406 -175,402 -5,-2 -23,-40 -40,-84 -26,-64 -101,-192 -160,-269 -6,-9 6,-43 38,-111 141,-297 257,-706 257,-908 0,-73 -21,-215 -31,-215 -9,0 -11,11 -34,185 -29,218 -87,480 -161,721 -51,171 -93,276 -109,272 -7,-2 -42,-36 -78,-76 -36,-40 -98,-100 -139,-134 -40,-33 -74,-64 -76,-68 -1,-4 18,-57 43,-119 77,-193 173,-531 209,-737 83,-471 10,-842 -227,-1156 -32,-43 -61,-77 -63,-75 -3,2 9,44 25,93 51,156 72,284 78,465 8,244 -18,453 -97,769 -60,244 -181,600 -202,600 -6,0 -40,-18 -75,-40 -279,-177 -937,-498 -1428,-697 -647,-262 -1153,-418 -1550,-478 -205,-31 -531,-35 -668,-10 -24,5 -37,3 -37,-3 0,-19 161,-129 279,-190 451,-234 814,-218 1551,68 429,167 818,359 1565,774 67,37 103,52 111,45 16,-13 50,-134 83,-299 51,-254 56,-310 56,-575 -1,-278 -16,-393 -74,-573 -132,-404 -459,-708 -927,-861 -472,-155 -975,-125 -1644,99 -622,208 -1131,455 -1533,742 -167,120 -237,179 -383,325 -449,449 -697,914 -794,1489 -39,235 -44,611 -10,879 5,43 10,85 10,92 0,7 5,13 10,13 6,0 10,-34 10,-82 0,-340 99,-810 247,-1172 202,-497 582,-988 1013,-1308 494,-368 1523,-800 2160,-907 571,-97 1034,7 1333,298 270,262 384,696 317,1207 -13,97 -39,226 -49,236 -4,4 -39,-12 -79,-37 -169,-105 -661,-352 -956,-480 -66,-29 -122,-57 -124,-64 -5,-15 234,-130 364,-175 164,-56 283,-79 423,-81 79,-1 126,-5 128,-12 6,-16 -25,-128 -54,-203 -140,-352 -499,-506 -993,-425 -214,35 -495,138 -1035,377 -192,86 -411,181 -485,213 -574,243 -929,515 -1276,978 -129,173 -192,274 -288,464 -128,254 -200,451 -277,751 -85,331 -116,580 -106,852 10,271 48,434 152,649 64,131 91,166 62,79 -51,-148 -65,-400 -32,-573 56,-301 223,-624 489,-945 113,-137 373,-396 631,-629 401,-362 846,-731 881,-731 70,0 564,123 564,141 0,4 -125,111 -277,237 -496,409 -1169,1007 -1389,1233 -302,311 -486,633 -566,991 -19,85 -23,130 -22,263 1,140 4,173 27,259 63,236 195,417 462,631 259,208 557,366 913,484 251,84 460,126 772,155 97,9 510,-3 630,-19 z"
   stroke-linecap="round"
   id="path16" />
</g>
		<g
   transform="matrix(0.05,0,0,-0.05,27.41,-92.56)"
   id="g22">
<path
   style="opacity:1;fill:#1863af;fill-rule:nonzero;stroke:none;stroke-width:1;stroke-linecap:butt;stroke-linejoin:miter;stroke-miterlimit:4;stroke-dasharray:none;stroke-dashoffset:0"
   transform="translate(-5549.46,-6964.9)"
   d="m 4495,8394 c -162,-26 -305,-82 -414,-164 -180,-132 -283,-304 -343,-567 -21,-96 -22,-113 -25,-993 l -4,-895 135,-120 c 74,-66 141,-121 149,-123 12,-2 15,41 16,275 2,246 4,279 19,296 32,36 196,172 322,269 318,242 610,420 884,539 l 78,34 59,-65 c 265,-290 513,-617 754,-997 61,-95 115,-173 122,-173 18,0 264,152 270,167 2,6 -36,78 -85,160 -167,277 -374,569 -590,833 -60,74 -108,139 -105,144 9,13 132,-1 204,-24 200,-62 364,-231 621,-640 46,-74 107,-174 134,-222 29,-52 55,-88 65,-88 12,0 183,133 238,185 12,12 5,29 -44,117 -207,368 -401,618 -590,761 -97,73 -272,159 -380,187 -333,86 -684,25 -1111,-194 -239,-124 -523,-309 -751,-492 -50,-41 -96,-74 -102,-74 -7,0 -11,56 -11,170 v 169 l 68,54 c 180,143 479,336 672,432 400,200 802,280 1149,229 121,-17 303,-75 412,-130 287,-143 547,-421 809,-861 40,-68 77,-123 81,-123 15,0 94,128 124,199 67,160 83,323 44,439 -34,102 -109,205 -248,342 -141,139 -233,209 -396,299 -262,146 -568,230 -833,231 h -94 l -106,67 c -241,152 -522,271 -767,324 -88,20 -359,34 -430,23 z m 137,-248 c 88,-18 127,-31 238,-84 101,-48 292,-171 288,-184 -2,-5 -55,-26 -118,-47 -296,-98 -546,-221 -871,-428 -81,-51 -150,-93 -153,-93 -3,0 -6,66 -6,148 0,188 22,299 79,410 23,44 57,98 76,120 64,75 190,144 295,162 69,12 92,11 172,-4 z"
   stroke-linecap="round"
   id="path20" />
</g>
		<g
   transform="matrix(0.05,0,0,-0.05,-77.41,-101.41)"
   id="g26">
<path
   style="opacity:1;fill:#1863af;fill-rule:nonzero;stroke:none;stroke-width:1;stroke-linecap:butt;stroke-linejoin:miter;stroke-miterlimit:4;stroke-dasharray:none;stroke-dashoffset:0"
   transform="translate(-3444.56,-7139.94)"
   d="m 3720,8226 c -164,-58 -296,-152 -394,-280 -117,-152 -171,-271 -214,-466 -24,-112 -25,-129 -29,-590 l -5,-475 82,-95 c 92,-106 270,-290 282,-290 5,0 8,327 8,728 0,427 4,764 10,817 32,277 143,496 325,643 49,40 30,42 -65,8 z"
   stroke-linecap="round"
   id="path24" />
</g>
		<g
   transform="matrix(0.05,0,0,-0.05,-89.96,8.06)"
   id="g30">
<path
   style="opacity:1;fill:#1863af;fill-rule:nonzero;stroke:none;stroke-width:1;stroke-linecap:butt;stroke-linejoin:miter;stroke-miterlimit:4;stroke-dasharray:none;stroke-dashoffset:0"
   transform="translate(-3185.63,-4915.05)"
   d="m 2475,5553 c 35,-189 218,-612 354,-818 167,-254 404,-412 705,-470 90,-18 366,-33 366,-20 0,4 -6,13 -14,19 -7,6 -83,67 -167,135 -291,236 -715,617 -919,827 -64,66 -162,174 -219,242 -57,67 -106,122 -108,122 -3,0 -2,-17 2,-37 z"
   stroke-linecap="round"
   id="path28" />
</g>
		<g
   transform="matrix(0.05,0,0,-0.05,26.17,86.85)"
   id="g34">
<path
   style="opacity:1;fill:#1863af;fill-rule:nonzero;stroke:none;stroke-width:1;stroke-linecap:butt;stroke-linejoin:miter;stroke-miterlimit:4;stroke-dasharray:none;stroke-dashoffset:0"
   transform="translate(-5538.61,-3312.47)"
   d="m 5275,3559 c -57,-22 -278,-89 -375,-114 -129,-32 -140,-36 -140,-44 0,-9 219,-115 366,-176 148,-63 355,-132 469,-157 133,-29 376,-31 475,-4 121,33 267,114 245,134 -5,5 -46,15 -90,22 -216,33 -513,147 -779,298 -60,34 -111,62 -115,62 -3,-1 -28,-10 -56,-21 z"
   stroke-linecap="round"
   id="path32" />
</g>
		<g
   transform="matrix(0.05,0,0,-0.05,-0.22,184.39)"
   id="g38">
<path
   style="opacity:1;fill:#1863af;fill-rule:nonzero;stroke:none;stroke-width:1;stroke-linecap:butt;stroke-linejoin:miter;stroke-miterlimit:4;stroke-dasharray:none;stroke-dashoffset:0"
   transform="translate(-4985.61,-1334.38)"
   d="m 4510,1509 c -1066,-27 -1719,-105 -1629,-194 41,-41 408,-97 814,-125 772,-51 1805,-52 2496,0 636,48 886,86 906,136 19,50 -144,87 -538,124 -332,31 -695,50 -1154,60 -454,10 -470,10 -895,-1 z"
   stroke-linecap="round"
   id="path36" />
</g>
</g>
</g></svg>
